<svg id="visual" viewBox="0 0 900 300" width="900" height="300" xmlns="http://www.w3.org/2000/svg" xmlns:xlink="http://www.w3.org/1999/xlink" version="1.1"><rect x="0" y="0" width="900" height="300" fill="#7e60bf"></rect><path d="M0 220L21.5 214.5C43 209 86 198 128.8 192.5C171.7 187 214.3 187 257.2 181.3C300 175.7 343 164.3 385.8 172.8C428.7 181.3 471.3 209.7 514.2 215.2C557 220.7 600 203.3 642.8 193.7C685.7 184 728.3 182 771.2 192.3C814 202.7 857 225.3 878.5 236.7L900 248L900 0L878.5 0C857 0 814 0 771.2 0C728.3 0 685.7 0 642.8 0C600 0 557 0 514.2 0C471.3 0 428.7 0 385.8 0C343 0 300 0 257.2 0C214.3 0 171.7 0 128.8 0C86 0 43 0 21.5 0L0 0Z" fill="#ba7bbe"></path><path d="M0 128L21.5 130.3C43 132.7 86 137.3 128.8 137C171.7 136.7 214.3 131.3 257.2 131.5C300 131.7 343 137.3 385.8 137.2C428.7 137 471.3 131 514.2 134C557 137 600 149 642.8 155.3C685.7 161.7 728.3 162.3 771.2 163.2C814 164 857 165 878.5 165.5L900 166L900 0L878.5 0C857 0 814 0 771.2 0C728.3 0 685.7 0 642.8 0C600 0 557 0 514.2 0C471.3 0 428.7 0 385.8 0C343 0 300 0 257.2 0C214.3 0 171.7 0 128.8 0C86 0 43 0 21.5 0L0 0Z" fill="#d796c1"></path><path d="M0 133L21.5 136.3C43 139.7 86 146.3 128.8 144.2C171.7 142 214.3 131 257.2 121.8C300 112.7 343 105.3 385.8 111C428.7 116.7 471.3 135.3 514.2 135.7C557 136 600 118 642.8 112.8C685.7 107.7 728.3 115.3 771.2 124.8C814 134.3 857 145.7 878.5 151.3L900 157L900 0L878.5 0C857 0 814 0 771.2 0C728.3 0 685.7 0 642.8 0C600 0 557 0 514.2 0C471.3 0 428.7 0 385.8 0C343 0 300 0 257.2 0C214.3 0 171.7 0 128.8 0C86 0 43 0 21.5 0L0 0Z" fill="#ebb5ca"></path><path d="M0 58L21.5 62.7C43 67.3 86 76.7 128.8 82.3C171.7 88 214.3 90 257.2 91.7C300 93.3 343 94.7 385.8 91.7C428.7 88.7 471.3 81.3 514.2 83.5C557 85.7 600 97.3 642.8 95.5C685.7 93.7 728.3 78.3 771.2 73.2C814 68 857 73 878.5 75.5L900 78L900 0L878.5 0C857 0 814 0 771.2 0C728.3 0 685.7 0 642.8 0C600 0 557 0 514.2 0C471.3 0 428.7 0 385.8 0C343 0 300 0 257.2 0C214.3 0 171.7 0 128.8 0C86 0 43 0 21.5 0L0 0Z" fill="#f8d6dc"></path><path d="M0 69L21.5 68.8C43 68.7 86 68.3 128.8 64.8C171.7 61.3 214.3 54.7 257.2 49.3C300 44 343 40 385.8 40.2C428.7 40.3 471.3 44.7 514.2 48.2C557 51.7 600 54.3 642.8 52.5C685.7 50.7 728.3 44.3 771.2 42.8C814 41.3 857 44.7 878.5 46.3L900 48L900 0L878.5 0C857 0 814 0 771.2 0C728.3 0 685.7 0 642.8 0C600 0 557 0 514.2 0C471.3 0 428.7 0 385.8 0C343 0 300 0 257.2 0C214.3 0 171.7 0 128.8 0C86 0 43 0 21.5 0L0 0Z" fill="#fff7f7"></path></svg>