<svg id="visual" viewBox="0 0 900 300" width="900" height="300" xmlns="http://www.w3.org/2000/svg" xmlns:xlink="http://www.w3.org/1999/xlink" version="1.1"><rect x="0" y="0" width="900" height="300" fill="#433878"></rect><path d="M0 184L21.5 194C43 204 86 224 128.8 230.2C171.7 236.3 214.3 228.7 257.2 218.8C300 209 343 197 385.8 196.3C428.7 195.7 471.3 206.3 514.2 203.2C557 200 600 183 642.8 183.8C685.7 184.7 728.3 203.3 771.2 217.2C814 231 857 240 878.5 244.5L900 249L900 0L878.5 0C857 0 814 0 771.2 0C728.3 0 685.7 0 642.8 0C600 0 557 0 514.2 0C471.3 0 428.7 0 385.8 0C343 0 300 0 257.2 0C214.3 0 171.7 0 128.8 0C86 0 43 0 21.5 0L0 0Z" fill="#ffe1ff"></path><path d="M0 152L21.5 158C43 164 86 176 128.8 177.7C171.7 179.3 214.3 170.7 257.2 169.3C300 168 343 174 385.8 176.2C428.7 178.3 471.3 176.7 514.2 167.5C557 158.3 600 141.7 642.8 144.8C685.7 148 728.3 171 771.2 183.5C814 196 857 198 878.5 199L900 200L900 0L878.5 0C857 0 814 0 771.2 0C728.3 0 685.7 0 642.8 0C600 0 557 0 514.2 0C471.3 0 428.7 0 385.8 0C343 0 300 0 257.2 0C214.3 0 171.7 0 128.8 0C86 0 43 0 21.5 0L0 0Z" fill="#e4beed"></path><path d="M0 150L21.5 151.2C43 152.3 86 154.7 128.8 151.7C171.7 148.7 214.3 140.3 257.2 135.3C300 130.3 343 128.7 385.8 123C428.7 117.3 471.3 107.7 514.2 104.2C557 100.7 600 103.3 642.8 101.7C685.7 100 728.3 94 771.2 99.5C814 105 857 122 878.5 130.5L900 139L900 0L878.5 0C857 0 814 0 771.2 0C728.3 0 685.7 0 642.8 0C600 0 557 0 514.2 0C471.3 0 428.7 0 385.8 0C343 0 300 0 257.2 0C214.3 0 171.7 0 128.8 0C86 0 43 0 21.5 0L0 0Z" fill="#c69cdc"></path><path d="M0 89L21.5 88.2C43 87.3 86 85.7 128.8 82C171.7 78.3 214.3 72.7 257.2 77.8C300 83 343 99 385.8 106.2C428.7 113.3 471.3 111.7 514.2 103.8C557 96 600 82 642.8 76.3C685.7 70.7 728.3 73.3 771.2 80.2C814 87 857 98 878.5 103.5L900 109L900 0L878.5 0C857 0 814 0 771.2 0C728.3 0 685.7 0 642.8 0C600 0 557 0 514.2 0C471.3 0 428.7 0 385.8 0C343 0 300 0 257.2 0C214.3 0 171.7 0 128.8 0C86 0 43 0 21.5 0L0 0Z" fill="#a47dcd"></path><path d="M0 71L21.5 71.2C43 71.3 86 71.7 128.8 72C171.7 72.3 214.3 72.7 257.2 66.7C300 60.7 343 48.3 385.8 43.5C428.7 38.7 471.3 41.3 514.2 40.3C557 39.3 600 34.7 642.8 39C685.7 43.3 728.3 56.7 771.2 62.3C814 68 857 66 878.5 65L900 64L900 0L878.5 0C857 0 814 0 771.2 0C728.3 0 685.7 0 642.8 0C600 0 557 0 514.2 0C471.3 0 428.7 0 385.8 0C343 0 300 0 257.2 0C214.3 0 171.7 0 128.8 0C86 0 43 0 21.5 0L0 0Z" fill="#7e60bf"></path></svg>