<svg id="visual" viewBox="0 0 900 300" width="900" height="300" xmlns="http://www.w3.org/2000/svg" xmlns:xlink="http://www.w3.org/1999/xlink" version="1.1"><rect x="0" y="0" width="900" height="300" fill="#433878"></rect><path d="M0 160L21.5 164.3C43 168.7 86 177.3 128.8 181.7C171.7 186 214.3 186 257.2 196.2C300 206.3 343 226.7 385.8 223.8C428.7 221 471.3 195 514.2 186.5C557 178 600 187 642.8 184.5C685.7 182 728.3 168 771.2 167C814 166 857 178 878.5 184L900 190L900 0L878.5 0C857 0 814 0 771.2 0C728.3 0 685.7 0 642.8 0C600 0 557 0 514.2 0C471.3 0 428.7 0 385.8 0C343 0 300 0 257.2 0C214.3 0 171.7 0 128.8 0C86 0 43 0 21.5 0L0 0Z" fill="#7e60bf"></path><path d="M0 183L21.5 180.2C43 177.3 86 171.7 128.8 166.8C171.7 162 214.3 158 257.2 159.8C300 161.7 343 169.3 385.8 170.8C428.7 172.3 471.3 167.7 514.2 159.2C557 150.7 600 138.3 642.8 140.8C685.7 143.3 728.3 160.7 771.2 160.3C814 160 857 142 878.5 133L900 124L900 0L878.5 0C857 0 814 0 771.2 0C728.3 0 685.7 0 642.8 0C600 0 557 0 514.2 0C471.3 0 428.7 0 385.8 0C343 0 300 0 257.2 0C214.3 0 171.7 0 128.8 0C86 0 43 0 21.5 0L0 0Z" fill="#ba7bbe"></path><path d="M0 88L21.5 95.3C43 102.7 86 117.3 128.8 120.3C171.7 123.3 214.3 114.7 257.2 111.3C300 108 343 110 385.8 116.2C428.7 122.3 471.3 132.7 514.2 131C557 129.3 600 115.7 642.8 114C685.7 112.3 728.3 122.7 771.2 123.7C814 124.7 857 116.3 878.5 112.2L900 108L900 0L878.5 0C857 0 814 0 771.2 0C728.3 0 685.7 0 642.8 0C600 0 557 0 514.2 0C471.3 0 428.7 0 385.8 0C343 0 300 0 257.2 0C214.3 0 171.7 0 128.8 0C86 0 43 0 21.5 0L0 0Z" fill="#dfa0c3"></path><path d="M0 62L21.5 65.5C43 69 86 76 128.8 79.8C171.7 83.7 214.3 84.3 257.2 88.2C300 92 343 99 385.8 99.3C428.7 99.7 471.3 93.3 514.2 86.8C557 80.3 600 73.7 642.8 73.3C685.7 73 728.3 79 771.2 82.3C814 85.7 857 86.3 878.5 86.7L900 87L900 0L878.5 0C857 0 814 0 771.2 0C728.3 0 685.7 0 642.8 0C600 0 557 0 514.2 0C471.3 0 428.7 0 385.8 0C343 0 300 0 257.2 0C214.3 0 171.7 0 128.8 0C86 0 43 0 21.5 0L0 0Z" fill="#f4cad5"></path><path d="M0 65L21.5 62.8C43 60.7 86 56.3 128.8 54.8C171.7 53.3 214.3 54.7 257.2 58C300 61.3 343 66.7 385.8 63.7C428.7 60.7 471.3 49.3 514.2 47.7C557 46 600 54 642.8 52.3C685.7 50.7 728.3 39.3 771.2 39C814 38.7 857 49.3 878.5 54.7L900 60L900 0L878.5 0C857 0 814 0 771.2 0C728.3 0 685.7 0 642.8 0C600 0 557 0 514.2 0C471.3 0 428.7 0 385.8 0C343 0 300 0 257.2 0C214.3 0 171.7 0 128.8 0C86 0 43 0 21.5 0L0 0Z" fill="#fff7f7"></path></svg>